<svg xmlns="http://www.w3.org/2000/svg" viewBox="0 0 24 24">
  <path d="M 6.8 18.5 A 10 10 0 0 0 12 22 A 10 10 0 0 0 12 2" fill="none" stroke="#0A2F1D" stroke-width="1.2" stroke-linecap="round" />
  <path d="M 6.8 18.5 C 11 15 11 8 12 2" fill="none" stroke="#0A2F1D" stroke-width="1.2" stroke-linecap="round" />
  <path d="M 6.8 18.5 A 10 10 0 0 1 12 2" fill="none" stroke="#0A2F1D" stroke-width="1.2" stroke-linecap="round" />
  <path d="M 13 10 C 13 10 10 14 10 16.5 A 3 3 0 0 0 16 16.5 C 16 14 13 10 13 10 Z" fill="#0A2F1D" />
  <path d="M 16.5 6.5 L 16.8 8.2 L 18.5 8.5 L 16.8 8.8 L 16.5 10.5 L 16.2 8.8 L 14.5 8.5 L 16.2 8.2 Z" fill="#0A2F1D" />
</svg>